<svg xmlns="http://www.w3.org/2000/svg" fill="none" viewBox="0 0 45 45"><rect width="44" height="44" x=".433" y=".215" fill="#000" rx="6.754"/><path fill="#fff" stroke="#fff" stroke-width=".367" d="M25.878 12.374c0 2.983-1.838 6.157-3.385 8.005l.226.71-.117.14c.249.207.646.166.852-.078 1.656-1.962 3.67-5.5 3.67-8.833 0-1.468-.383-2.782-1.165-3.733-.785-.956-1.958-1.527-3.495-1.527-2.098 0-4.155.958-5.827 2.708-2.584 2.715-4.216 6.683-4.13 11.1.057 2.867.845 4.83 1.958 6.08s2.538 1.771 3.834 1.771c2.525 0 4.216-1.61 5.47-3.2.791-.996 1.525-2.16 2.063-3.14.012 1.239.016 3.203.017 4.972l-.425.476c-.18.2-.362.406-.548.616-.322.366-.637.717-.942 1.056l-.007.007c-.873.97-1.664 1.85-2.236 2.692-.573.844-.94 1.672-.94 2.542 0 .678.235 1.262.648 1.677.413.415.993.65 1.66.65 1.12 0 2.285-.548 3.108-2.1.589-1.113.843-2.76.843-5.218v-1.965l.934-1.043.02-.022c.342-.382.952-1.042 1.645-1.793 1.3-1.407 2.894-3.134 3.575-3.943a.358.358 0 0 0 .051-.088 2.737 2.737 0 0 0 .104-.344c.041-.18.078-.417.05-.597-.014-.086-.05-.207-.157-.279-.12-.08-.255-.055-.364-.005-.11.05-.234.144-.373.277-.14.135-.307.319-.504.56l-.008.01-.034.038-.13.145-.471.527a3433.312 3433.312 0 0 1-4.338 4.838v-6.13c0-.299-.215-.496-.437-.57l-.016-.005-.016-.002a.602.602 0 0 0-.643.325l-.02.039v.012l-.045.102a28.315 28.315 0 0 1-.828 1.658c-.554 1.02-1.319 2.284-2.17 3.285l-.002.001c-1.436 1.71-2.692 2.698-4.505 2.698-1.338 0-2.46-.622-3.261-1.755-.805-1.139-1.288-2.798-1.316-4.86-.056-4.13 1.43-7.776 3.802-10.25 1.446-1.522 3.185-2.34 4.939-2.34 1.104 0 1.94.365 2.505 1.041.568.682.881 1.706.881 3.062Zm-.13 16.844.102-.119v.648c0 1.691-.172 3.538-.827 4.734-.465.844-1.067 1.371-1.964 1.371-.354 0-.621-.118-.8-.311-.182-.195-.292-.485-.292-.859 0-.565.249-1.147.73-1.845.482-.699 1.178-1.488 2.043-2.469l.001-.002c.315-.357.651-.738 1.006-1.148Z"/></svg>