<svg xmlns="http://www.w3.org/2000/svg" fill="none" viewBox="0 0 200 39"><path fill="#DD6F6F" d="M122.4 18.593c2.942 0 5.407-2.443 4.487-5.238A16.75 16.75 0 0 0 116.211 2.68c-2.794-.92-5.237 1.545-5.237 4.487v6.1a5.326 5.326 0 0 0 5.326 5.327h6.1Z"/><path fill="#3F7E7E" d="M109.857 7.166c0-2.942-2.443-5.406-5.238-4.487a16.758 16.758 0 0 0-10.676 10.676c-.92 2.795 1.545 5.238 4.487 5.238h6.1a5.327 5.327 0 0 0 5.327-5.327v-6.1Z"/><path fill="#667099" d="M98.43 19.71c-2.942 0-5.407 2.442-4.487 5.237a16.74 16.74 0 0 0 4.067 6.609 16.76 16.76 0 0 0 6.609 4.067c2.795.92 5.238-1.545 5.238-4.487v-6.1a5.327 5.327 0 0 0-5.327-5.326h-6.1Z"/><path fill="#969" d="M110.974 31.136c0 2.942 2.443 5.407 5.237 4.487a16.763 16.763 0 0 0 10.676-10.676c.92-2.794-1.545-5.237-4.487-5.237h-6.1a5.326 5.326 0 0 0-5.326 5.326v6.1Z"/><path fill="#3D455F" d="M.34 27.141V13.377h2.2l.19 1.518h.152a5.042 5.042 0 0 1 1.771-1.29 5.336 5.336 0 0 1 2.164-.443c.784 0 1.484.164 2.1.493.615.32 1.1.844 1.454 1.57.355.724.532 1.694.532 2.909v9.007H8.309v-8.805c0-1.08-.21-1.826-.632-2.239-.413-.413-.966-.62-1.657-.62a3.54 3.54 0 0 0-1.076.177c-.37.11-.725.287-1.062.532a3.651 3.651 0 0 0-.899.961v9.994H.34Zm15.8 0v-8.805c0-1.08-.219-1.826-.658-2.239-.438-.413-1.003-.62-1.695-.62-.354 0-.73.06-1.126.177a3.692 3.692 0 0 0-1.138.595c-.363.278-.675.653-.936 1.126l-.608-1.936c.658-.835 1.384-1.421 2.176-1.758.801-.346 1.582-.519 2.34-.519.827 0 1.56.164 2.202.493.65.33 1.155.865 1.518 1.607.371.734.557 1.716.557 2.948v8.931H16.14ZM28.355 27.394c-1.518 0-2.788-.244-3.808-.734-1.012-.489-1.771-1.256-2.277-2.302-.506-1.054-.76-2.42-.76-4.099 0-1.585.233-2.901.696-3.947.473-1.054 1.143-1.843 2.012-2.366.869-.523 1.906-.784 3.112-.784 1.18 0 2.18.261 2.998.784.827.523 1.45 1.316 1.873 2.379.43 1.054.645 2.386.645 3.997v.76h-9.868v-1.67h7.882l-.506.278c0-1.164-.119-2.092-.355-2.783-.236-.692-.581-1.185-1.037-1.48-.455-.304-1.008-.456-1.657-.456-.65 0-1.21.148-1.683.443-.464.295-.822.788-1.075 1.48s-.38 1.623-.38 2.796v.986c0 1.14.156 2.05.468 2.733a2.84 2.84 0 0 0 1.468 1.455c.666.295 1.53.443 2.593.443.523 0 1.071-.042 1.645-.127a17.77 17.77 0 0 0 1.796-.392v2.075c-.683.185-1.332.32-1.948.405a13.51 13.51 0 0 1-1.834.126ZM40.954 27.381c-1.484 0-2.636-.375-3.454-1.125-.81-.76-1.214-1.961-1.214-3.606v-9.273l.455-4.96h2.189V22.22c0 1.088.22 1.851.658 2.29.438.43 1.105.645 1.998.645.254 0 .507-.017.76-.05.253-.034.535-.085.847-.153v2.176c-.346.076-.712.135-1.1.177-.38.051-.76.076-1.139.076Zm-7.148-11.866v-2.138h9.223v2.138h-9.223ZM45.334 27.141V6.697h2.644v8.173h.139a5.265 5.265 0 0 1 1.834-1.278 5.95 5.95 0 0 1 2.277-.43c.835 0 1.582.164 2.24.493.666.33 1.189.86 1.568 1.594.388.734.582 1.717.582 2.948v8.944h-2.644V18.35c0-1.08-.236-1.822-.708-2.227-.473-.413-1.1-.62-1.885-.62a4.68 4.68 0 0 0-1.202.165c-.413.101-.814.27-1.202.506-.38.236-.712.548-1 .936v10.032h-2.643ZM65.463 27.394c-1.24 0-2.32-.253-3.239-.759-.91-.506-1.62-1.282-2.125-2.328-.506-1.045-.76-2.386-.76-4.023 0-1.644.25-2.99.747-4.035.498-1.046 1.202-1.822 2.113-2.328.919-.506 2.007-.759 3.264-.759 1.256 0 2.34.253 3.25.759.92.506 1.629 1.282 2.126 2.328.498 1.046.746 2.387.746 4.023 0 1.627-.252 2.968-.758 4.023-.498 1.054-1.207 1.834-2.126 2.34-.92.506-1.999.76-3.238.76Zm0-2.087c.708 0 1.32-.152 1.834-.456.514-.312.91-.83 1.19-1.556.277-.734.417-1.733.417-2.998 0-1.282-.14-2.29-.418-3.024-.278-.733-.675-1.252-1.19-1.556-.514-.312-1.125-.468-1.833-.468-.709 0-1.32.152-1.835.456-.514.303-.91.822-1.189 1.556-.278.725-.417 1.72-.417 2.985 0 1.282.135 2.29.404 3.024.279.734.675 1.257 1.19 1.569.522.312 1.138.468 1.847.468ZM79.383 27.381a5.665 5.665 0 0 1-2.757-.683c-.827-.455-1.489-1.18-1.987-2.176-.497-1.003-.746-2.332-.746-3.985 0-1.636.27-2.998.81-4.086.54-1.096 1.336-1.918 2.39-2.467 1.063-.548 2.37-.822 3.922-.822.355 0 .709.017 1.063.05.354.026.679.06.974.102V6.697h2.644v20.444h-2.24l-.163-1.48h-.152c-.405.506-.928.92-1.569 1.24-.633.32-1.362.48-2.189.48Zm.684-2.213c.556 0 1.1-.119 1.632-.355a3.357 3.357 0 0 0 1.353-1.113v-8.236a6.773 6.773 0 0 0-.974-.151 9.406 9.406 0 0 0-1.088-.064c-1.46 0-2.56.393-3.302 1.177s-1.113 2.083-1.113 3.896c0 1.248.147 2.227.443 2.935.295.7.704 1.194 1.227 1.48.531.287 1.138.43 1.822.43ZM134.838 32.707v-19.33h2.238l.177 1.505h.14a4.415 4.415 0 0 1 1.569-1.24c.64-.32 1.37-.48 2.188-.48.995 0 1.905.223 2.732.67.835.447 1.501 1.173 1.999 2.176.506.996.759 2.328.759 3.998 0 1.636-.27 3.003-.809 4.099a5.378 5.378 0 0 1-2.404 2.454c-1.055.548-2.357.822-3.908.822-.347 0-.697-.017-1.051-.05a14.892 14.892 0 0 1-.987-.101v5.477h-2.643Zm4.706-7.413c1.467 0 2.567-.392 3.301-1.176.742-.793 1.113-2.092 1.113-3.897 0-1.257-.151-2.235-.455-2.935-.296-.7-.709-1.193-1.24-1.48-.523-.287-1.121-.43-1.796-.43-.549 0-1.092.118-1.632.354-.531.228-.982.599-1.354 1.113v8.236c.278.067.603.122.975.165.37.033.734.05 1.088.05ZM149.465 27.141V6.697h2.643v8.173h.14a5.258 5.258 0 0 1 1.834-1.278 5.95 5.95 0 0 1 2.277-.43c.835 0 1.582.164 2.24.493.665.33 1.189.86 1.568 1.594.388.734.582 1.717.582 2.948v8.944h-2.644V18.35c0-1.08-.236-1.822-.709-2.227-.471-.413-1.1-.62-1.884-.62-.388 0-.789.055-1.203.165-.413.101-.813.27-1.201.506a3.646 3.646 0 0 0-1 .936v10.032h-2.643ZM169.593 27.394c-1.24 0-2.318-.253-3.239-.759-.911-.506-1.619-1.282-2.125-2.328-.506-1.045-.759-2.386-.759-4.023 0-1.644.249-2.99.747-4.035.498-1.046 1.201-1.822 2.112-2.328.92-.506 2.008-.759 3.264-.759 1.257 0 2.341.253 3.252.759.919.506 1.627 1.282 2.125 2.328.498 1.046.746 2.387.746 4.023 0 1.627-.253 2.968-.759 4.023-.497 1.054-1.205 1.834-2.125 2.34-.919.506-1.999.76-3.239.76Zm0-2.087c.708 0 1.321-.152 1.835-.456.514-.312.911-.83 1.189-1.556.278-.734.417-1.733.417-2.998 0-1.282-.139-2.29-.417-3.024-.278-.733-.675-1.252-1.189-1.556-.514-.312-1.127-.468-1.835-.468-.709 0-1.32.152-1.834.456-.514.303-.911.822-1.189 1.556-.278.725-.418 1.72-.418 2.985 0 1.282.136 2.29.405 3.024.278.734.675 1.257 1.189 1.569.523.312 1.138.468 1.847.468ZM183.754 27.381c-1.485 0-2.636-.375-3.453-1.125-.81-.76-1.215-1.961-1.215-3.606v-9.273l.456-4.96h2.188V22.22c0 1.088.219 1.851.658 2.29.438.43 1.105.645 1.998.645.253 0 .506-.017.759-.05.253-.034.536-.085.849-.153v2.176a10.44 10.44 0 0 1-1.102.177c-.379.051-.759.076-1.138.076Zm-7.147-11.866v-2.138h9.222v2.138h-9.222ZM193.338 27.394c-1.24 0-2.319-.253-3.239-.759-.911-.506-1.619-1.282-2.125-2.328-.506-1.045-.759-2.386-.759-4.023 0-1.644.249-2.99.747-4.035.498-1.046 1.201-1.822 2.112-2.328.92-.506 2.008-.759 3.264-.759 1.257 0 2.341.253 3.251.759.919.506 1.628 1.282 2.126 2.328.498 1.046.746 2.387.746 4.023 0 1.627-.253 2.968-.759 4.023-.497 1.054-1.206 1.834-2.126 2.34-.919.506-1.999.76-3.238.76Zm0-2.087c.708 0 1.321-.152 1.835-.456.514-.312.91-.83 1.189-1.556.278-.734.417-1.733.417-2.998 0-1.282-.139-2.29-.417-3.024-.279-.733-.675-1.252-1.189-1.556-.514-.312-1.127-.468-1.835-.468-.709 0-1.32.152-1.834.456-.514.303-.911.822-1.189 1.556-.279.725-.418 1.72-.418 2.985 0 1.282.135 2.29.404 3.024.279.734.676 1.257 1.19 1.569.523.312 1.138.468 1.847.468Z"/></svg>