<svg xmlns="http://www.w3.org/2000/svg" fill="none" viewBox="0 0 45 45"><rect width="44" height="44" x=".933" y=".215" fill="#5B55DD" rx="6.754"/><path fill="#fff" d="M36.706 14.042c-.428-3.151-3.199-5.635-6.484-6.116-.554-.082-2.653-.378-7.517-.378h-.037c-4.865 0-5.909.296-6.463.378-3.193.468-6.11 2.7-6.817 5.888-.34 1.57-.377 3.312-.313 4.91.09 2.29.107 4.576.317 6.857.145 1.516.398 3.019.757 4.499.673 2.733 3.395 5.007 6.063 5.935a16.396 16.396 0 0 0 8.87.464c.323-.075.643-.161.96-.26.714-.225 1.552-.477 2.168-.92a.07.07 0 0 0 .028-.053v-2.21a.064.064 0 0 0-.025-.051.065.065 0 0 0-.055-.012c-1.886.446-3.818.67-5.756.666-3.336 0-4.233-1.569-4.49-2.222a6.84 6.84 0 0 1-.39-1.752.064.064 0 0 1 .08-.065 24.32 24.32 0 0 0 5.662.666c.459 0 .916 0 1.375-.012 1.918-.053 3.94-.15 5.827-.516.047-.009.094-.017.134-.029 2.977-.567 5.81-2.345 6.098-6.849.01-.177.038-1.857.038-2.04 0-.626.203-4.436-.03-6.778ZM32.124 25.28h-3.13v-7.6c0-1.6-.672-2.415-2.04-2.415-1.504 0-2.257.965-2.257 2.872v4.16h-3.111v-4.16c0-1.907-.755-2.872-2.259-2.872-1.36 0-2.04.816-2.04 2.416v7.6h-3.128v-7.83c0-1.6.412-2.872 1.236-3.814.85-.94 1.965-1.423 3.35-1.423 1.602 0 2.812.611 3.62 1.831l.778 1.296.78-1.296c.807-1.22 2.018-1.83 3.617-1.83 1.383 0 2.498.482 3.351 1.422.824.941 1.236 2.212 1.236 3.813l-.003 7.83Z"/></svg>