<svg xmlns="http://www.w3.org/2000/svg" fill="none" viewBox="0 0 288 44"><rect width="288" height="44" fill="#BF3F3B" rx="6"/><path fill="#fff" d="M113.256 27.406c.648.432 1.926.774 3.096.774 2.862 0 4.248-1.62 4.248-3.492 0-1.782-1.044-2.772-3.096-3.564-1.674-.648-2.412-1.206-2.412-2.34 0-.828.63-1.818 2.286-1.818 1.098 0 1.908.36 2.304.576l.432-1.278c-.54-.306-1.44-.594-2.682-.594-2.358 0-3.924 1.404-3.924 3.294 0 1.71 1.224 2.736 3.204 3.438 1.638.63 2.286 1.278 2.286 2.412 0 1.224-.936 2.07-2.538 2.07a5.55 5.55 0 0 1-2.808-.792l-.396 1.314Zm13.23-8.316c-2.412 0-4.32 1.71-4.32 4.626 0 2.754 1.818 4.482 4.176 4.482 2.106 0 4.338-1.404 4.338-4.626 0-2.664-1.692-4.482-4.194-4.482Zm-.036 1.188c1.872 0 2.61 1.872 2.61 3.348 0 1.962-1.134 3.384-2.646 3.384-1.548 0-2.646-1.44-2.646-3.348 0-1.656.81-3.384 2.682-3.384ZM132.675 28h1.584V15.22h-1.584V28Zm10.194-12.78v5.202h-.036c-.396-.702-1.296-1.332-2.628-1.332-2.124 0-3.924 1.782-3.906 4.68 0 2.646 1.62 4.428 3.726 4.428 1.422 0 2.484-.738 2.97-1.71h.036l.072 1.512h1.422c-.054-.594-.072-1.476-.072-2.25V15.22h-1.584Zm0 9.126c0 .252-.018.468-.072.684-.288 1.188-1.26 1.89-2.322 1.89-1.71 0-2.574-1.458-2.574-3.222 0-1.926.972-3.366 2.61-3.366 1.188 0 2.052.828 2.286 1.836.054.198.072.468.072.666v1.512Zm11.725-5.256c-2.412 0-4.32 1.71-4.32 4.626 0 2.754 1.818 4.482 4.176 4.482 2.106 0 4.338-1.404 4.338-4.626 0-2.664-1.692-4.482-4.194-4.482Zm-.036 1.188c1.872 0 2.61 1.872 2.61 3.348 0 1.962-1.134 3.384-2.646 3.384-1.548 0-2.646-1.44-2.646-3.348 0-1.656.81-3.384 2.682-3.384Zm13.515-.99h-1.584v5.346c0 .288-.054.576-.144.81-.288.702-1.026 1.44-2.088 1.44-1.44 0-1.944-1.116-1.944-2.772v-4.824h-1.584v5.094c0 3.06 1.638 3.816 3.006 3.816a3.278 3.278 0 0 0 2.88-1.62h.036l.09 1.422h1.404a30.993 30.993 0 0 1-.072-2.376v-6.336Zm2.984-2.088v2.088h-1.35v1.206h1.35v4.752c0 1.026.162 1.8.612 2.268.378.432.972.666 1.71.666.612 0 1.098-.09 1.404-.216l-.072-1.188a3.524 3.524 0 0 1-.918.108c-.882 0-1.188-.612-1.188-1.692v-4.698h2.268v-1.206h-2.268v-2.502l-1.548.414Z"/></svg>