<svg width="44" height="44" viewBox="0 0 44 44" fill="none" xmlns="http://www.w3.org/2000/svg">
<g clip-path="url(#clip0_604_25)">
<path d="M37.246 0H6.754C3.02387 0 0 3.02387 0 6.754V37.246C0 40.9761 3.02387 44 6.754 44H37.246C40.9761 44 44 40.9761 44 37.246V6.754C44 3.02387 40.9761 0 37.246 0Z" fill="black"/>
<path d="M29.1152 20.9044C28.9859 20.8425 28.8547 20.7829 28.7217 20.7258C28.4902 16.4591 26.1587 14.0164 22.244 13.9914C22.2263 13.9913 22.2087 13.9913 22.1909 13.9913C19.8494 13.9913 17.902 14.9908 16.7034 16.8095L18.8564 18.2864C19.7518 16.9279 21.1571 16.6382 22.192 16.6382C22.2039 16.6382 22.2159 16.6383 22.2278 16.6384C23.5167 16.6466 24.4894 17.0213 25.1189 17.7522C25.577 18.2843 25.8834 19.0195 26.0352 19.9475C24.8923 19.7532 23.6564 19.6935 22.3352 19.7693C18.6132 19.9837 16.2205 22.1544 16.3812 25.1706C16.4627 26.7006 17.225 28.0169 18.5273 28.8767C19.6285 29.6036 21.0467 29.9591 22.5207 29.8786C24.4672 29.7719 25.9942 29.0292 27.0595 27.6713C27.8686 26.64 28.3803 25.3036 28.6062 23.6197C29.5339 24.1795 30.2214 24.9163 30.6011 25.8019C31.2467 27.3073 31.2844 29.7812 29.2658 31.7981C27.4972 33.565 25.3712 34.3294 22.1584 34.353C18.5944 34.3266 15.899 33.1836 14.1466 30.9558C12.5055 28.8697 11.6575 25.8566 11.6258 22C11.6575 18.1434 12.5055 15.1303 14.1466 13.0442C15.899 10.8164 18.5944 9.67344 22.1583 9.64695C25.7481 9.67364 28.4905 10.8221 30.31 13.0606C31.2022 14.1584 31.8748 15.5389 32.3183 17.1485L34.8413 16.4753C34.3038 14.4941 33.458 12.7868 32.307 11.3709C29.9744 8.50104 26.5628 7.03049 22.1671 7H22.1495C17.7628 7.03039 14.3894 8.50653 12.1232 11.3874C10.1065 13.951 9.06631 17.5181 9.03136 21.9895L9.03125 22L9.03136 22.0105C9.06631 26.4819 10.1065 30.0491 12.1232 32.6127C14.3894 35.4934 17.7628 36.9697 22.1495 37H22.1671C26.0672 36.973 28.8162 35.9519 31.0809 33.6892C34.0439 30.7291 33.9547 27.0186 32.9781 24.7408C32.2775 23.1073 30.9417 21.7807 29.1152 20.9044ZM22.3813 27.2355C20.7501 27.3273 19.0554 26.5952 18.9718 25.0269C18.9099 23.8641 19.7993 22.5666 22.4814 22.412C22.7886 22.3943 23.09 22.3856 23.3861 22.3856C24.3603 22.3856 25.2717 22.4803 26.1003 22.6614C25.7912 26.5211 23.9784 27.1478 22.3813 27.2355Z" fill="white"/>
</g>
<defs>
<clipPath id="clip0_604_25">
<rect width="44" height="44" fill="white"/>
</clipPath>
</defs>
</svg>
