<?xml version="1.0" standalone="no"?>
<!DOCTYPE svg PUBLIC "-//W3C//DTD SVG 20010904//EN"
 "http://www.w3.org/TR/2001/REC-SVG-20010904/DTD/svg10.dtd">
<svg version="1.0" xmlns="http://www.w3.org/2000/svg"
 width="260.000000pt" height="260.000000pt" viewBox="0 0 260.000000 260.000000"
 preserveAspectRatio="xMidYMid meet">
<metadata>
Created by potrace 1.14, written by Peter Selinger 2001-2017
</metadata>
<g transform="translate(0.000000,260.000000) scale(0.100000,-0.100000)"
fill="#000000" stroke="none">
<path d="M889 2543 c-316 -91 -594 -326 -756 -638 -44 -85 -93 -229 -94 -278
-4 -116 69 -217 190 -264 41 -16 85 -18 406 -18 l360 1 55 25 c103 48 179 143
198 249 7 32 10 192 9 385 l-2 330 -26 56 c-28 59 -83 119 -133 145 -61 31
-118 33 -207 7z"/>
<path d="M1575 2560 c-87 -19 -158 -78 -202 -168 l-28 -57 0 -365 0 -365 27
-58 c34 -72 104 -141 177 -175 l56 -27 349 -1 c357 -1 390 2 463 40 75 38 140
135 144 212 2 57 -7 96 -52 209 -110 283 -314 507 -593 655 -81 43 -202 88
-255 96 -20 3 -40 6 -46 8 -5 1 -23 0 -40 -4z"/>
<path d="M254 1244 c-126 -37 -215 -142 -215 -252 -1 -109 99 -335 215 -490
67 -88 197 -220 244 -246 9 -5 25 -17 35 -26 9 -9 30 -23 45 -31 15 -8 29 -16
32 -19 16 -18 160 -84 238 -110 96 -32 155 -38 209 -21 60 18 128 75 159 135
38 70 41 105 39 462 l-1 349 -26 58 c-34 72 -102 140 -176 174 l-57 27 -350 1
c-248 1 -362 -2 -391 -11z"/>
<path d="M1615 1250 c-102 -23 -198 -101 -243 -197 l-27 -58 0 -365 0 -365 26
-55 c40 -84 104 -141 187 -165 66 -19 163 4 322 77 176 80 346 220 472 388
108 144 209 375 209 480 1 95 -68 191 -171 239 l-55 26 -345 1 c-190 0 -358
-2 -375 -6z"/>
</g>
</svg>
