<svg xmlns="http://www.w3.org/2000/svg" xml:space="preserve" style="fill-rule:evenodd;clip-rule:evenodd;stroke-linejoin:round;stroke-miterlimit:2" viewBox="0 0 45 45"><path d="M44.933 6.969v30.492a6.757 6.757 0 0 1-6.754 6.754H7.687a6.757 6.757 0 0 1-6.754-6.754V6.969A6.757 6.757 0 0 1 7.687.215h30.492a6.757 6.757 0 0 1 6.754 6.754Z" style="fill:url(#a)" transform="translate(-.433 .285)"/><path d="M351.121 315.106c65.12 48.888 135.16 148.017 160.879 201.209 25.719-53.192 95.759-152.321 160.879-201.209C719.866 279.83 796 252.536 796 339.388c0 17.346-9.945 145.713-15.778 166.555-20.275 72.453-94.155 90.933-159.875 79.748 114.875 19.551 144.097 84.311 80.986 149.071-119.86 122.992-172.272-30.859-185.702-70.281-2.462-7.227-3.614-10.608-3.631-7.733-.017-2.875-1.169.506-3.631 7.733-13.43 39.422-65.842 193.273-185.702 70.281-63.111-64.76-33.889-129.52 80.986-149.071-65.72 11.185-139.6-7.295-159.875-79.748C237.945 485.101 228 356.734 228 339.388c0-86.852 76.134-59.558 123.121-24.282Z" style="fill:#fff;fill-rule:nonzero" transform="matrix(.04296 0 0 .04298 .53 .485)"/><defs><linearGradient id="a" x1="0" x2="1" y1="0" y2="0" gradientTransform="rotate(90 19.216 19.603) scale(43.8998)" gradientUnits="userSpaceOnUse"><stop offset="0" style="stop-color:#0a7aff;stop-opacity:1"/><stop offset="1" style="stop-color:#59b9ff;stop-opacity:1"/></linearGradient></defs></svg>