 <svg xmlns="http://www.w3.org/2000/svg" fill="none" viewBox="0 0 288 44"><rect width="288" height="44" fill="#68739B" rx="6"/><path fill="#fff" d="M130.868 27.964c.522.072 1.35.144 2.43.144 1.98 0 3.348-.36 4.194-1.134a3.27 3.27 0 0 0 1.026-2.43c0-1.8-1.35-2.754-2.502-3.042v-.036c1.278-.468 2.052-1.494 2.052-2.664 0-.954-.378-1.674-1.008-2.142-.756-.612-1.764-.882-3.33-.882-1.098 0-2.178.108-2.862.252v11.934Zm1.566-10.872c.252-.054.666-.108 1.386-.108 1.584 0 2.664.558 2.664 1.98 0 1.17-.972 2.034-2.628 2.034h-1.422v-3.906Zm0 5.094h1.296c1.71 0 3.132.684 3.132 2.34 0 1.764-1.494 2.358-3.114 2.358-.558 0-1.008-.018-1.314-.072v-4.626Zm15.426-2.898h-1.584v5.346c0 .288-.054.576-.144.81-.288.702-1.026 1.44-2.088 1.44-1.44 0-1.944-1.116-1.944-2.772v-4.824h-1.584v5.094c0 3.06 1.638 3.816 3.006 3.816a3.278 3.278 0 0 0 2.88-1.62h.036l.09 1.422h1.404a30.993 30.993 0 0 1-.072-2.376v-6.336Zm1.472 0 3.222 8.028c.072.198.108.324.108.414 0 .09-.054.216-.126.378-.36.81-.9 1.422-1.332 1.764a4.19 4.19 0 0 1-1.386.774l.396 1.332c.396-.072 1.17-.342 1.944-1.026 1.08-.936 1.854-2.466 2.988-5.454l2.376-6.21h-1.674L154.12 24.4c-.216.63-.396 1.296-.558 1.818h-.036a32.82 32.82 0 0 0-.558-1.782l-1.908-5.148h-1.728Z"/></svg>