<svg xmlns="http://www.w3.org/2000/svg" fill="none" viewBox="0 0 17 17"><rect width="16" height="16" x=".433" y=".215" fill="#000" rx="2.456"/><path fill="#fff" stroke="#fff" stroke-width=".133" d="M8.805 7.828c.602-.713 1.334-2 1.334-3.212 0-.534-.14-1.012-.423-1.357-.286-.348-.713-.556-1.271-.556-.763 0-1.511.349-2.12.985-.94.987-1.533 2.43-1.501 4.037.02 1.042.307 1.756.712 2.21a1.86 1.86 0 0 0 1.394.644c.918 0 1.533-.585 1.99-1.163a8.42 8.42 0 0 0 .75-1.142c.004.45.005 1.165.006 1.808l-.155.173-.2.224c-.116.133-.231.26-.342.384l-.002.003c-.318.353-.606.672-.813.978-.209.307-.342.609-.342.925a.85.85 0 0 0 .235.61.84.84 0 0 0 .604.236c.407 0 .83-.2 1.13-.764.214-.405.307-1.003.307-1.897v-.715l.339-.379.008-.008c.124-.139.346-.379.598-.652a60.845 60.845 0 0 0 1.3-1.434.13.13 0 0 0 .018-.032.99.99 0 0 0 .038-.125.63.63 0 0 0 .018-.217c-.005-.031-.018-.075-.057-.101-.043-.03-.092-.02-.132-.002a.534.534 0 0 0-.136.1 2.206 2.206 0 0 0-.183.204l-.003.004-.012.014-.047.052-.172.192-.552.617-1.025 1.142v-2.23c0-.108-.079-.18-.16-.206h.001l-.012-.003a.219.219 0 0 0-.234.118l-.007.015v.004c-.004.008-.01.02-.016.037l-.064.138c-.056.117-.137.28-.238.465-.2.371-.479.83-.789 1.195-.522.622-.98.981-1.639.981-.486 0-.894-.226-1.185-.638-.293-.414-.469-1.018-.479-1.768-.02-1.501.52-2.827 1.383-3.726.526-.554 1.158-.852 1.796-.852.401 0 .705.133.91.379.207.248.321.62.321 1.114 0 1.084-.668 2.238-1.23 2.91a.204.204 0 0 0-.043.165.239.239 0 0 0 .082.145l.31-.03Zm.833 2.933.038-.043v.236c0 .615-.063 1.286-.3 1.721l.058.032-.059-.032c-.169.307-.388.499-.714.499a.382.382 0 0 1-.291-.113.447.447 0 0 1-.106-.313c0-.205.09-.417.265-.67.175-.255.429-.542.743-.898v-.001c.115-.13.238-.268.366-.418Z"/></svg>