<svg width="128" height="128" viewBox="0 0 128 128" fill="none" xmlns="http://www.w3.org/2000/svg">
<path d="M100.571 0H27.4286C12.2802 0 0 12.2802 0 27.4286V100.571C0 115.72 12.2802 128 27.4286 128H100.571C115.72 128 128 115.72 128 100.571V27.4286C128 12.2802 115.72 0 100.571 0Z" fill="url(#paint0_radial_1465_40090)"/>
<path d="M100.571 0H27.4286C12.2802 0 0 12.2802 0 27.4286V100.571C0 115.72 12.2802 128 27.4286 128H100.571C115.72 128 128 115.72 128 100.571V27.4286C128 12.2802 115.72 0 100.571 0Z" fill="url(#paint1_radial_1465_40090)"/>
<path d="M100.571 0H27.4286C12.2802 0 0 12.2802 0 27.4286V100.571C0 115.72 12.2802 128 27.4286 128H100.571C115.72 128 128 115.72 128 100.571V27.4286C128 12.2802 115.72 0 100.571 0Z" fill="url(#paint2_radial_1465_40090)"/>
<path d="M95.9999 38.8571C95.9999 42.6441 92.9298 45.7143 89.1428 45.7143C85.3558 45.7143 82.2856 42.6441 82.2856 38.8571C82.2856 35.07 85.3558 32 89.1428 32C92.9298 32 95.9999 35.07 95.9999 38.8571Z" fill="white"/>
<path fill-rule="evenodd" clip-rule="evenodd" d="M64.0002 86.8549C76.6238 86.8549 86.8574 76.6213 86.8574 63.9978C86.8574 51.3742 76.6238 41.1406 64.0002 41.1406C51.3767 41.1406 41.1431 51.3742 41.1431 63.9978C41.1431 76.6213 51.3767 86.8549 64.0002 86.8549ZM64.0002 77.7121C71.5746 77.7121 77.7145 71.5722 77.7145 63.9978C77.7145 56.4234 71.5746 50.2835 64.0002 50.2835C56.4258 50.2835 50.2859 56.4234 50.2859 63.9978C50.2859 71.5722 56.4258 77.7121 64.0002 77.7121Z" fill="white"/>
<path fill-rule="evenodd" clip-rule="evenodd" d="M18.2856 62.1748C18.2856 46.8134 18.2856 39.1325 21.2752 33.2653C23.9048 28.1043 28.1009 23.9083 33.2619 21.2786C39.1291 18.2891 46.81 18.2891 62.1714 18.2891H65.8285C81.1899 18.2891 88.8708 18.2891 94.7378 21.2786C99.8989 23.9083 104.095 28.1043 106.725 33.2653C109.714 39.1325 109.714 46.8134 109.714 62.1748V65.8319C109.714 81.1933 109.714 88.8742 106.725 94.7412C104.095 99.9023 99.8989 104.098 94.7378 106.728C88.8708 109.718 81.1899 109.718 65.8285 109.718H62.1714C46.81 109.718 39.1291 109.718 33.2619 106.728C28.1009 104.098 23.9048 99.9023 21.2752 94.7412C18.2856 88.8742 18.2856 81.1933 18.2856 65.8319V62.1748ZM62.1714 27.4319H65.8285C73.6603 27.4319 78.9837 27.4391 83.0989 27.7752C87.1076 28.1027 89.1574 28.6963 90.5874 29.4249C94.0278 31.1781 96.8251 33.9754 98.5782 37.4159C99.3069 38.8459 99.9007 40.8957 100.228 44.9044C100.564 49.0196 100.571 54.343 100.571 62.1748V65.8319C100.571 73.6637 100.564 78.9871 100.228 83.1023C99.9007 87.111 99.3069 89.1608 98.5782 90.5908C96.8251 94.0312 94.0278 96.8285 90.5874 98.5816C89.1574 99.3103 87.1076 99.9042 83.0989 100.231C78.9837 100.567 73.6603 100.575 65.8285 100.575H62.1714C54.3396 100.575 49.0162 100.567 44.901 100.231C40.8923 99.9042 38.8424 99.3103 37.4125 98.5816C33.972 96.8285 31.1747 94.0312 29.4215 90.5908C28.6929 89.1608 28.0993 87.111 27.7718 83.1023C27.4356 78.9871 27.4285 73.6637 27.4285 65.8319V62.1748C27.4285 54.343 27.4356 49.0196 27.7718 44.9044C28.0993 40.8957 28.6929 38.8459 29.4215 37.4159C31.1747 33.9754 33.972 31.1781 37.4125 29.4249C38.8424 28.6963 40.8923 28.1027 44.901 27.7752C49.0162 27.4391 54.3396 27.4319 62.1714 27.4319Z" fill="white"/>
<defs>
<radialGradient id="paint0_radial_1465_40090" cx="0" cy="0" r="1" gradientUnits="userSpaceOnUse" gradientTransform="translate(45.7143 96) rotate(-55.3758) scale(116.661)">
<stop stop-color="#B13589"/>
<stop offset="0.79309" stop-color="#C62F94"/>
<stop offset="1" stop-color="#8A3AC8"/>
</radialGradient>
<radialGradient id="paint1_radial_1465_40090" cx="0" cy="0" r="1" gradientUnits="userSpaceOnUse" gradientTransform="translate(41.1429 132.571) rotate(-65.1363) scale(103.288)">
<stop stop-color="#E0E8B7"/>
<stop offset="0.444662" stop-color="#FB8A2E"/>
<stop offset="0.71474" stop-color="#E2425C"/>
<stop offset="1" stop-color="#E2425C" stop-opacity="0"/>
</radialGradient>
<radialGradient id="paint2_radial_1465_40090" cx="0" cy="0" r="1" gradientUnits="userSpaceOnUse" gradientTransform="translate(-6.85714 4.57143) rotate(-8.1301) scale(177.787 38.0268)">
<stop offset="0.156701" stop-color="#406ADC"/>
<stop offset="0.467799" stop-color="#6A45BE"/>
<stop offset="1" stop-color="#6A45BE" stop-opacity="0"/>
</radialGradient>
</defs>
</svg>
