<svg width="200" height="39" viewBox="0 0 200 39" fill="none" xmlns="http://www.w3.org/2000/svg">
<path d="M122.4 18.5929C125.342 18.5929 127.807 16.1499 126.887 13.3549C126.067 10.8641 124.674 8.60052 122.82 6.7464C120.966 4.89228 118.702 3.49941 116.211 2.67993C113.417 1.75993 110.974 4.22493 110.974 7.16693V13.2669C110.974 13.9664 111.112 14.6591 111.379 15.3054C111.647 15.9517 112.039 16.539 112.534 17.0336C113.028 17.5283 113.615 17.9207 114.262 18.1884C114.908 18.4561 115.601 18.5939 116.3 18.5939L122.4 18.5929Z" fill="#E79898"/>
<path d="M109.857 7.16661C109.857 4.22461 107.414 1.76061 104.619 2.67961C102.128 3.49976 99.8649 4.89297 98.0107 6.74719C96.1565 8.60142 94.7633 10.8649 93.9431 13.3556C93.0231 16.1506 95.4881 18.5936 98.4301 18.5936H104.53C105.943 18.5936 107.298 18.0324 108.297 17.0334C109.296 16.0344 109.857 14.6794 109.857 13.2666V7.16661Z" fill="#50A0A0"/>
<path d="M98.4301 19.7109C95.4881 19.7109 93.0231 22.1529 93.9431 24.9479C94.7624 27.4391 96.1555 29.7029 98.0101 31.5569C99.8646 33.411 102.128 34.804 104.619 35.6239C107.414 36.5439 109.857 34.0789 109.857 31.1369V25.0369C109.857 23.6243 109.295 22.2696 108.297 21.2708C107.298 20.272 105.943 19.7109 104.53 19.7109H98.4301Z" fill="#858DAD"/>
<path d="M110.974 31.1369C110.974 34.0789 113.417 36.5439 116.211 35.6239C118.702 34.8034 120.965 33.4101 122.819 31.5559C124.673 29.7018 126.067 27.4385 126.887 24.9479C127.807 22.1539 125.342 19.7109 122.4 19.7109H116.3C114.888 19.7109 113.533 20.2721 112.534 21.2709C111.535 22.2697 110.974 23.6244 110.974 25.0369V31.1369Z" fill="#AD85AD"/>
<path d="M0.339844 27.1393V13.3753H2.53984L2.72984 14.8933H2.88184C3.37048 14.3387 3.97509 13.8983 4.65284 13.6033C5.33538 13.3063 6.07251 13.1554 6.81684 13.1603C7.60084 13.1603 8.30084 13.3243 8.91684 13.6533C9.53184 13.9733 10.0168 14.4973 10.3708 15.2233C10.7258 15.9473 10.9028 16.9173 10.9028 18.1323V27.1393H8.30884V18.3343C8.30884 17.2543 8.09884 16.5083 7.67684 16.0953C7.26384 15.6823 6.71084 15.4753 6.01984 15.4753C5.65419 15.4784 5.29122 15.5381 4.94384 15.6523C4.57384 15.7623 4.21884 15.9393 3.88184 16.1843C3.52644 16.4476 3.22183 16.7732 2.98284 17.1453V27.1393H0.339844ZM16.1398 27.1393V18.3343C16.1398 17.2543 15.9208 16.5083 15.4818 16.0953C15.0438 15.6823 14.4788 15.4753 13.7868 15.4753C13.4328 15.4753 13.0568 15.5353 12.6608 15.6523C12.2497 15.7826 11.8645 15.984 11.5228 16.2473C11.1598 16.5253 10.8478 16.9003 10.5868 17.3733L9.97884 15.4373C10.6368 14.6023 11.3628 14.0163 12.1548 13.6793C12.9558 13.3333 13.7368 13.1603 14.4948 13.1603C15.3218 13.1603 16.0548 13.3243 16.6968 13.6533C17.3468 13.9833 17.8518 14.5183 18.2148 15.2603C18.5858 15.9943 18.7718 16.9763 18.7718 18.2083V27.1393H16.1398ZM28.3548 27.3923C26.8368 27.3923 25.5668 27.1483 24.5468 26.6583C23.5348 26.1693 22.7758 25.4023 22.2698 24.3563C21.7638 23.3023 21.5098 21.9363 21.5098 20.2573C21.5098 18.6723 21.7428 17.3563 22.2058 16.3103C22.6788 15.2563 23.3488 14.4673 24.2178 13.9443C25.0868 13.4213 26.1238 13.1603 27.3298 13.1603C28.5098 13.1603 29.5098 13.4213 30.3278 13.9443C31.1548 14.4673 31.7778 15.2603 32.2008 16.3233C32.6308 17.3773 32.8458 18.7093 32.8458 20.3203V21.0803H22.9778V19.4103H30.8598L30.3538 19.6883C30.3538 18.5243 30.2348 17.5963 29.9988 16.9053C29.7628 16.2133 29.4178 15.7203 28.9618 15.4253C28.5068 15.1213 27.9538 14.9693 27.3048 14.9693C26.6548 14.9693 26.0948 15.1173 25.6218 15.4123C25.1578 15.7073 24.7998 16.2003 24.5468 16.8923C24.2938 17.5843 24.1668 18.5153 24.1668 19.6883V20.6743C24.1668 21.8143 24.3228 22.7243 24.6348 23.4073C24.9241 24.0595 25.4481 24.5789 26.1028 24.8623C26.7688 25.1573 27.6328 25.3053 28.6958 25.3053C29.2188 25.3053 29.7668 25.2633 30.3408 25.1783C30.9459 25.0787 31.5453 24.9479 32.1368 24.7863V26.8613C31.4538 27.0463 30.8048 27.1813 30.1888 27.2663C29.5811 27.3499 28.9683 27.392 28.3548 27.3923ZM40.9538 27.3793C39.4698 27.3793 38.3178 27.0043 37.4998 26.2543C36.6898 25.4943 36.2858 24.2933 36.2858 22.6483V13.3753L36.7408 8.41531H38.9298V22.2183C38.9298 23.3063 39.1498 24.0693 39.5878 24.5083C40.0258 24.9383 40.6928 25.1533 41.5858 25.1533C41.8398 25.1533 42.0928 25.1363 42.3458 25.1033C42.5988 25.0693 42.8808 25.0183 43.1928 24.9503V27.1263C42.8468 27.2023 42.4808 27.2613 42.0928 27.3033C41.7128 27.3543 41.3328 27.3793 40.9538 27.3793ZM33.8058 15.5133V13.3753H43.0288V15.5133H33.8058ZM45.3338 27.1393V6.69531H47.9778V14.8683H48.1168C48.6297 14.316 49.2551 13.8801 49.9508 13.5903C50.6743 13.2991 51.448 13.153 52.2278 13.1603C53.0628 13.1603 53.8098 13.3243 54.4678 13.6533C55.1338 13.9833 55.6568 14.5133 56.0358 15.2473C56.4238 15.9813 56.6178 16.9643 56.6178 18.1953V27.1393H53.9738V18.3483C53.9738 17.2683 53.7378 16.5263 53.2658 16.1213C52.7928 15.7083 52.1658 15.5013 51.3808 15.5013C50.9747 15.5039 50.5707 15.5594 50.1788 15.6663C49.7658 15.7673 49.3648 15.9363 48.9768 16.1723C48.5968 16.4083 48.2648 16.7203 47.9768 17.1083V27.1403L45.3338 27.1393ZM65.4628 27.3923C64.2228 27.3923 63.1428 27.1393 62.2238 26.6333C61.3138 26.1273 60.6038 25.3513 60.0988 24.3053C59.5928 23.2603 59.3388 21.9193 59.3388 20.2823C59.3388 18.6383 59.5888 17.2923 60.0858 16.2473C60.5838 15.2013 61.2878 14.4253 62.1988 13.9193C63.1178 13.4133 64.2058 13.1603 65.4628 13.1603C66.7188 13.1603 67.8028 13.4133 68.7128 13.9193C69.6328 14.4253 70.3418 15.2013 70.8388 16.2473C71.3368 17.2933 71.5848 18.6343 71.5848 20.2703C71.5848 21.8973 71.3329 23.2383 70.8269 24.2933C70.3289 25.3473 69.6198 26.1273 68.7008 26.6333C67.7808 27.1393 66.7018 27.3933 65.4628 27.3933V27.3923ZM65.4628 25.3053C66.1708 25.3053 66.7828 25.1533 67.2968 24.8493C67.8108 24.5373 68.2068 24.0193 68.4868 23.2933C68.7638 22.5593 68.9038 21.5603 68.9038 20.2953C68.9038 19.0133 68.7638 18.0053 68.4858 17.2713C68.2078 16.5383 67.8108 16.0193 67.2958 15.7153C66.7818 15.4033 66.1708 15.2473 65.4628 15.2473C64.7538 15.2473 64.1428 15.3993 63.6278 15.7033C63.1138 16.0063 62.7178 16.5253 62.4388 17.2593C62.1608 17.9843 62.0218 18.9793 62.0218 20.2443C62.0218 21.5263 62.1568 22.5343 62.4258 23.2683C62.7048 24.0023 63.1008 24.5253 63.6158 24.8373C64.1378 25.1493 64.7538 25.3053 65.4628 25.3053ZM79.3829 27.3793C78.4208 27.3895 77.4719 27.1544 76.6258 26.6963C75.7988 26.2413 75.1368 25.5163 74.6388 24.5203C74.1418 23.5173 73.8928 22.1883 73.8928 20.5353C73.8928 18.8993 74.1629 17.5373 74.7029 16.4493C75.2429 15.3533 76.0388 14.5313 77.0928 13.9823C78.1558 13.4343 79.4628 13.1603 81.0148 13.1603C81.3698 13.1603 81.7239 13.1773 82.0779 13.2103C82.4319 13.2363 82.7568 13.2703 83.0518 13.3123V6.69531H85.6958V27.1393H83.4558L83.2928 25.6593H83.1408C82.7358 26.1653 82.2128 26.5793 81.5718 26.8993C80.9388 27.2193 80.2099 27.3793 79.3829 27.3793ZM80.0668 25.1663C80.6228 25.1663 81.1668 25.0473 81.6988 24.8113C82.2404 24.5666 82.7073 24.1825 83.0518 23.6983V15.4623C82.7313 15.3884 82.4058 15.3379 82.0779 15.3113C81.7167 15.269 81.3534 15.2476 80.9898 15.2473C79.5298 15.2473 78.4299 15.6403 77.6879 16.4243C76.9459 17.2083 76.5748 18.5073 76.5748 20.3203C76.5748 21.5683 76.7218 22.5473 77.0178 23.2553C77.3128 23.9553 77.7219 24.4493 78.2449 24.7353C78.7759 25.0223 79.3828 25.1663 80.0668 25.1663ZM134.838 32.7053V13.3753H137.076L137.253 14.8803H137.393C137.814 14.3524 138.351 13.9282 138.962 13.6403C139.602 13.3203 140.332 13.1603 141.15 13.1603C142.145 13.1603 143.055 13.3833 143.882 13.8303C144.717 14.2773 145.383 15.0033 145.881 16.0063C146.387 17.0023 146.64 18.3343 146.64 20.0043C146.64 21.6403 146.37 23.0073 145.831 24.1033C145.319 25.1621 144.475 26.0241 143.427 26.5573C142.372 27.1053 141.07 27.3793 139.519 27.3793C139.172 27.3793 138.822 27.3623 138.468 27.3293C138.138 27.3066 137.809 27.2729 137.481 27.2283V32.7053H134.838ZM139.544 25.2923C141.011 25.2923 142.111 24.9003 142.845 24.1163C143.587 23.3233 143.958 22.0243 143.958 20.2193C143.958 18.9623 143.807 17.9843 143.503 17.2843C143.207 16.5843 142.794 16.0913 142.263 15.8043C141.74 15.5173 141.142 15.3743 140.467 15.3743C139.918 15.3743 139.375 15.4923 138.835 15.7283C138.304 15.9563 137.853 16.3273 137.481 16.8413V25.0773C137.759 25.1443 138.084 25.1993 138.456 25.2423C138.826 25.2753 139.19 25.2923 139.544 25.2923ZM149.465 27.1393V6.69531H152.108V14.8683H152.248C152.761 14.3158 153.386 13.8799 154.082 13.5903C154.805 13.2991 155.579 13.153 156.359 13.1603C157.194 13.1603 157.941 13.3243 158.599 13.6533C159.264 13.9833 159.788 14.5133 160.167 15.2473C160.555 15.9813 160.749 16.9643 160.749 18.1953V27.1393H158.105V18.3483C158.105 17.2683 157.869 16.5263 157.396 16.1213C156.925 15.7083 156.296 15.5013 155.512 15.5013C155.124 15.5013 154.723 15.5563 154.309 15.6663C153.896 15.7673 153.496 15.9363 153.108 16.1723C152.718 16.4183 152.379 16.7359 152.108 17.1083V27.1403L149.465 27.1393ZM169.593 27.3923C168.353 27.3923 167.275 27.1393 166.354 26.6333C165.443 26.1273 164.735 25.3513 164.229 24.3053C163.723 23.2603 163.47 21.9193 163.47 20.2823C163.47 18.6383 163.719 17.2923 164.217 16.2473C164.715 15.2013 165.418 14.4253 166.329 13.9193C167.249 13.4133 168.337 13.1603 169.593 13.1603C170.85 13.1603 171.934 13.4133 172.845 13.9193C173.764 14.4253 174.472 15.2013 174.97 16.2473C175.468 17.2933 175.716 18.6343 175.716 20.2703C175.716 21.8973 175.463 23.2383 174.957 24.2933C174.46 25.3473 173.752 26.1273 172.832 26.6333C171.913 27.1393 170.833 27.3933 169.593 27.3933V27.3923ZM169.593 25.3053C170.301 25.3053 170.914 25.1533 171.428 24.8493C171.942 24.5373 172.339 24.0193 172.617 23.2933C172.895 22.5593 173.034 21.5603 173.034 20.2953C173.034 19.0133 172.895 18.0053 172.617 17.2713C172.339 16.5383 171.942 16.0193 171.428 15.7153C170.914 15.4033 170.301 15.2473 169.593 15.2473C168.884 15.2473 168.273 15.3993 167.759 15.7033C167.245 16.0063 166.848 16.5253 166.57 17.2593C166.292 17.9843 166.152 18.9793 166.152 20.2443C166.152 21.5263 166.288 22.5343 166.557 23.2683C166.835 24.0023 167.232 24.5253 167.746 24.8373C168.269 25.1493 168.884 25.3053 169.593 25.3053ZM183.754 27.3793C182.269 27.3793 181.118 27.0043 180.301 26.2543C179.491 25.4943 179.086 24.2933 179.086 22.6483V13.3753L179.542 8.41531H181.73V22.2183C181.73 23.3063 181.949 24.0693 182.388 24.5083C182.826 24.9383 183.493 25.1533 184.386 25.1533C184.639 25.1533 184.892 25.1363 185.145 25.1033C185.398 25.0693 185.681 25.0183 185.994 24.9503V27.1263C185.63 27.2049 185.262 27.264 184.892 27.3033C184.513 27.3543 184.133 27.3793 183.754 27.3793ZM176.607 15.5133V13.3753H185.829V15.5133H176.607ZM193.338 27.3923C192.098 27.3923 191.019 27.1393 190.099 26.6333C189.188 26.1273 188.48 25.3513 187.974 24.3053C187.468 23.2603 187.215 21.9193 187.215 20.2823C187.215 18.6383 187.464 17.2923 187.962 16.2473C188.46 15.2013 189.163 14.4253 190.074 13.9193C190.994 13.4133 192.082 13.1603 193.338 13.1603C194.595 13.1603 195.679 13.4133 196.589 13.9193C197.508 14.4253 198.217 15.2013 198.715 16.2473C199.213 17.2933 199.461 18.6343 199.461 20.2703C199.461 21.8973 199.208 23.2383 198.702 24.2933C198.205 25.3473 197.496 26.1273 196.576 26.6333C195.657 27.1393 194.577 27.3933 193.338 27.3933V27.3923ZM193.338 25.3053C194.046 25.3053 194.659 25.1533 195.173 24.8493C195.687 24.5373 196.083 24.0193 196.362 23.2933C196.64 22.5593 196.779 21.5603 196.779 20.2953C196.779 19.0133 196.64 18.0053 196.362 17.2713C196.083 16.5383 195.687 16.0193 195.173 15.7153C194.659 15.4033 194.046 15.2473 193.338 15.2473C192.629 15.2473 192.018 15.3993 191.504 15.7033C190.99 16.0063 190.593 16.5253 190.315 17.2593C190.036 17.9843 189.897 18.9793 189.897 20.2443C189.897 21.5263 190.032 22.5343 190.301 23.2683C190.58 24.0023 190.977 24.5253 191.491 24.8373C192.014 25.1493 192.629 25.3053 193.338 25.3053Z" fill="#E9EBF1"/>
</svg>
