<svg width="200" height="39" viewBox="0 0 200 39" fill="none" xmlns="http://www.w3.org/2000/svg">
<path d="M94 14.5806C96.2091 14.5806 98.0601 12.7461 97.3694 10.6477C97.2716 10.3503 97.1625 10.0563 97.0424 9.76624C96.4101 8.23989 95.4834 6.85301 94.3152 5.68479C93.147 4.51656 91.7601 3.58988 90.2338 2.95764C89.9437 2.83749 89.6497 2.72842 89.3523 2.63056C87.2539 1.93994 85.4194 3.79086 85.4194 6V10.5806C85.4194 12.7898 87.2102 14.5806 89.4194 14.5806H94Z" fill="#DD6F6F"/>
<path d="M84.5806 6.00002C84.5806 3.79088 82.7461 1.93997 80.6477 2.63059C80.3503 2.72845 80.0563 2.83752 79.7662 2.95767C78.2399 3.58991 76.853 4.51659 75.6848 5.68481C74.5166 6.85303 73.5899 8.23991 72.9576 9.76627C72.8375 10.0563 72.7284 10.3504 72.6306 10.6477C71.9399 12.7461 73.7909 14.5807 76 14.5807H80.5806C82.7898 14.5807 84.5806 12.7898 84.5806 10.5807V6.00002Z" fill="#3F7E7E"/>
<path d="M76 15.4194C73.7909 15.4194 71.9399 17.2539 72.6306 19.3523C72.7284 19.6497 72.8375 19.9437 72.9576 20.2338C73.5899 21.7601 74.5166 23.147 75.6848 24.3152C76.853 25.4834 78.2399 26.4101 79.7662 27.0424C80.0563 27.1625 80.3503 27.2716 80.6477 27.3694C82.7461 28.0601 84.5806 26.2091 84.5806 24V19.4194C84.5806 17.2102 82.7898 15.4194 80.5806 15.4194H76Z" fill="#667099"/>
<path d="M85.4194 24C85.4194 26.2091 87.2539 28.06 89.3523 27.3694C89.6497 27.2715 89.9437 27.1625 90.2338 27.0423C91.7601 26.4101 93.147 25.4834 94.3152 24.3152C95.4834 23.147 96.4101 21.7601 97.0424 20.2337C97.1625 19.9437 97.2716 19.6496 97.3694 19.3523C98.0601 17.2539 96.2091 15.4193 94 15.4193H89.4194C87.2102 15.4193 85.4194 17.2102 85.4194 19.4193V24Z" fill="#996699"/>
<path d="M2.33948 21V10.664H3.99248L4.13498 11.804H4.24898C4.63531 11.3733 5.07864 11.0503 5.57898 10.835C6.08564 10.6133 6.62714 10.5025 7.20348 10.5025C7.79248 10.5025 8.31814 10.626 8.78048 10.873C9.24281 11.1137 9.60698 11.5063 9.87298 12.051C10.139 12.5957 10.272 13.324 10.272 14.236V21H8.32448V14.388C8.32448 13.5773 8.16614 13.0168 7.84948 12.7065C7.53914 12.3962 7.12431 12.241 6.60498 12.241C6.34531 12.241 6.07614 12.2853 5.79748 12.374C5.51881 12.4563 5.25281 12.5893 4.99948 12.773C4.74614 12.9567 4.52131 13.1973 4.32498 13.495V21H2.33948ZM14.205 21V14.388C14.205 13.5773 14.0403 13.0168 13.711 12.7065C13.3816 12.3962 12.9573 12.241 12.438 12.241C12.172 12.241 11.8901 12.2853 11.5925 12.374C11.3011 12.4627 11.0161 12.6115 10.7375 12.8205C10.4651 13.0295 10.2308 13.3113 10.0345 13.666L9.57848 12.2125C10.0725 11.5855 10.6171 11.1453 11.2125 10.892C11.8141 10.6323 12.4 10.5025 12.97 10.5025C13.5906 10.5025 14.1416 10.626 14.623 10.873C15.1106 11.12 15.4906 11.5222 15.763 12.0795C16.0416 12.6305 16.181 13.3683 16.181 14.293V21H14.205Z" fill="#3D455F"/>
<path d="M23.3774 21.19C22.2374 21.19 21.2842 21.0063 20.5179 20.639C19.7579 20.2717 19.1879 19.6953 18.8079 18.91C18.4279 18.1183 18.2379 17.0923 18.2379 15.832C18.2379 14.6413 18.412 13.6533 18.7604 12.868C19.115 12.0763 19.6185 11.4842 20.2709 11.0915C20.9232 10.6988 21.7022 10.5025 22.6079 10.5025C23.4945 10.5025 24.245 10.6988 24.8594 11.0915C25.48 11.4842 25.9487 12.0795 26.2654 12.8775C26.5884 13.6692 26.7499 14.6698 26.7499 15.8795V16.4495H19.3399V15.1955H25.2584L24.8784 15.4045C24.8784 14.5305 24.7897 13.8338 24.6124 13.3145C24.435 12.7952 24.1754 12.4247 23.8334 12.203C23.4914 11.975 23.0765 11.861 22.5889 11.861C22.1012 11.861 21.68 11.9718 21.3254 12.1935C20.977 12.4152 20.7079 12.7857 20.5179 13.305C20.3279 13.8243 20.2329 14.5242 20.2329 15.4045V16.1455C20.2329 17.0005 20.35 17.6845 20.5844 18.1975C20.8187 18.7042 21.186 19.0683 21.6864 19.29C22.1867 19.5117 22.8359 19.6225 23.6339 19.6225C24.0265 19.6225 24.4382 19.5908 24.8689 19.5275C25.2995 19.4578 25.7492 19.3597 26.2179 19.233V20.791C25.7049 20.9303 25.2172 21.0317 24.7549 21.095C24.2925 21.1583 23.8334 21.19 23.3774 21.19Z" fill="#3D455F"/>
<path d="M32.8386 21.1805C31.724 21.1805 30.8595 20.8987 30.2451 20.335C29.6371 19.765 29.3331 18.8625 29.3331 17.6275V10.664L29.6751 6.94001H31.3186V17.3045C31.3186 18.1215 31.4833 18.6947 31.8126 19.024C32.142 19.347 32.6423 19.5085 33.3136 19.5085C33.5036 19.5085 33.6936 19.4958 33.8836 19.4705C34.0736 19.4452 34.2858 19.4072 34.5201 19.3565V20.9905C34.2605 21.0475 33.985 21.0918 33.6936 21.1235C33.4086 21.1615 33.1236 21.1805 32.8386 21.1805ZM27.4711 12.2695V10.664H34.3966V12.2695H27.4711Z" fill="#3D455F"/>
<path d="M36.1276 21V5.64801H38.1131V11.785H38.2176C38.6166 11.3607 39.0757 11.0408 39.5951 10.8255C40.1207 10.6102 40.6907 10.5025 41.3051 10.5025C41.9321 10.5025 42.4926 10.626 42.9866 10.873C43.4869 11.12 43.8796 11.519 44.1646 12.07C44.4559 12.621 44.6016 13.3588 44.6016 14.2835V21H42.6161V14.3975C42.6161 13.5868 42.4387 13.0295 42.0841 12.7255C41.7294 12.4152 41.2576 12.26 40.6686 12.26C40.3772 12.26 40.0764 12.3012 39.7661 12.3835C39.4557 12.4595 39.1549 12.5862 38.8636 12.7635C38.5786 12.9408 38.3284 13.1752 38.1131 13.4665V21H36.1276Z" fill="#3D455F"/>
<path d="M51.2431 21.19C50.3121 21.19 49.5014 21 48.8111 20.62C48.1271 20.24 47.5951 19.6573 47.2151 18.872C46.8351 18.0867 46.6451 17.0797 46.6451 15.851C46.6451 14.616 46.8319 13.6058 47.2056 12.8205C47.5793 12.0352 48.1081 11.4525 48.7921 11.0725C49.4824 10.6925 50.2994 10.5025 51.2431 10.5025C52.1868 10.5025 53.0006 10.6925 53.6846 11.0725C54.3749 11.4525 54.9069 12.0352 55.2806 12.8205C55.6543 13.6058 55.8411 14.6128 55.8411 15.8415C55.8411 17.0638 55.6511 18.0708 55.2711 18.8625C54.8974 19.6542 54.3654 20.24 53.6751 20.62C52.9848 21 52.1741 21.19 51.2431 21.19ZM51.2431 19.6225C51.7751 19.6225 52.2343 19.5085 52.6206 19.2805C53.0069 19.0462 53.3046 18.6567 53.5136 18.112C53.7226 17.561 53.8271 16.8105 53.8271 15.8605C53.8271 14.8978 53.7226 14.141 53.5136 13.59C53.3046 13.039 53.0069 12.6495 52.6206 12.4215C52.2343 12.1872 51.7751 12.07 51.2431 12.07C50.7111 12.07 50.2519 12.184 49.8656 12.412C49.4793 12.64 49.1816 13.0295 48.9726 13.5805C48.7636 14.1252 48.6591 14.8725 48.6591 15.8225C48.6591 16.7852 48.7604 17.542 48.9631 18.093C49.1721 18.644 49.4698 19.0367 49.8561 19.271C50.2488 19.5053 50.7111 19.6225 51.2431 19.6225Z" fill="#3D455F"/>
<path d="M61.6968 21.1805C60.9431 21.1805 60.2528 21.0095 59.6258 20.6675C59.0051 20.3255 58.508 19.7808 58.1343 19.0335C57.7606 18.2798 57.5738 17.2823 57.5738 16.041C57.5738 14.8123 57.7765 13.7895 58.1818 12.9725C58.5871 12.1492 59.1856 11.5317 59.9773 11.12C60.7753 10.7083 61.757 10.5025 62.9223 10.5025C63.1883 10.5025 63.4543 10.5152 63.7203 10.5405C63.9863 10.5595 64.2301 10.5848 64.4518 10.6165V5.64801H66.4373V21H64.7558L64.6323 19.8885H64.5183C64.2143 20.2685 63.8216 20.5788 63.3403 20.8195C62.8653 21.0602 62.3175 21.1805 61.6968 21.1805ZM62.2098 19.518C62.6278 19.518 63.0363 19.4293 63.4353 19.252C63.8343 19.0747 64.1731 18.796 64.4518 18.416V12.2315C64.2428 12.1808 63.999 12.1428 63.7203 12.1175C63.448 12.0858 63.1756 12.07 62.9033 12.07C61.8076 12.07 60.9811 12.3645 60.4238 12.9535C59.8665 13.5425 59.5878 14.5178 59.5878 15.8795C59.5878 16.8168 59.6986 17.5515 59.9203 18.0835C60.142 18.6092 60.4491 18.9797 60.8418 19.195C61.2408 19.4103 61.6968 19.518 62.2098 19.518Z" fill="#3D455F"/>
<path d="M103.34 25.18V10.664H105.021L105.154 11.7945H105.259C105.563 11.4082 105.955 11.0978 106.437 10.8635C106.918 10.6228 107.466 10.5025 108.08 10.5025C108.827 10.5025 109.511 10.6703 110.132 11.006C110.759 11.3417 111.259 11.8863 111.633 12.64C112.013 13.3873 112.203 14.388 112.203 15.642C112.203 16.8707 112 17.8967 111.595 18.72C111.19 19.537 110.588 20.1513 109.79 20.563C108.998 20.9747 108.02 21.1805 106.855 21.1805C106.595 21.1805 106.332 21.1678 106.066 21.1425C105.8 21.1235 105.553 21.0982 105.325 21.0665V25.18H103.34ZM106.874 19.613C107.976 19.613 108.802 19.3185 109.353 18.7295C109.91 18.1342 110.189 17.1588 110.189 15.8035C110.189 14.8598 110.075 14.1252 109.847 13.5995C109.625 13.0738 109.315 12.7033 108.916 12.488C108.523 12.2727 108.074 12.165 107.567 12.165C107.155 12.165 106.747 12.2537 106.342 12.431C105.943 12.602 105.604 12.8807 105.325 13.267V19.4515C105.534 19.5022 105.778 19.5433 106.057 19.575C106.335 19.6003 106.608 19.613 106.874 19.613Z" fill="#3D455F"/>
<path d="M114.324 21V5.64801H116.309V11.785H116.414C116.813 11.3607 117.272 11.0408 117.791 10.8255C118.317 10.6102 118.887 10.5025 119.501 10.5025C120.128 10.5025 120.689 10.626 121.183 10.873C121.683 11.12 122.076 11.519 122.361 12.07C122.652 12.621 122.798 13.3588 122.798 14.2835V21H120.812V14.3975C120.812 13.5868 120.635 13.0295 120.28 12.7255C119.926 12.4152 119.454 12.26 118.865 12.26C118.574 12.26 118.273 12.3012 117.962 12.3835C117.652 12.4595 117.351 12.5862 117.06 12.7635C116.775 12.9408 116.525 13.1752 116.309 13.4665V21H114.324Z" fill="#3D455F"/>
<path d="M129.439 21.19C128.508 21.19 127.698 21 127.007 20.62C126.323 20.24 125.791 19.6573 125.411 18.872C125.031 18.0867 124.841 17.0797 124.841 15.851C124.841 14.616 125.028 13.6058 125.402 12.8205C125.776 12.0352 126.304 11.4525 126.988 11.0725C127.679 10.6925 128.496 10.5025 129.439 10.5025C130.383 10.5025 131.197 10.6925 131.881 11.0725C132.571 11.4525 133.103 12.0352 133.477 12.8205C133.851 13.6058 134.037 14.6128 134.037 15.8415C134.037 17.0638 133.847 18.0708 133.467 18.8625C133.094 19.6542 132.562 20.24 131.871 20.62C131.181 21 130.37 21.19 129.439 21.19ZM129.439 19.6225C129.971 19.6225 130.431 19.5085 130.817 19.2805C131.203 19.0462 131.501 18.6567 131.71 18.112C131.919 17.561 132.023 16.8105 132.023 15.8605C132.023 14.8978 131.919 14.141 131.71 13.59C131.501 13.039 131.203 12.6495 130.817 12.4215C130.431 12.1872 129.971 12.07 129.439 12.07C128.907 12.07 128.448 12.184 128.062 12.412C127.676 12.64 127.378 13.0295 127.169 13.5805C126.96 14.1252 126.855 14.8725 126.855 15.8225C126.855 16.7852 126.957 17.542 127.159 18.093C127.368 18.644 127.666 19.0367 128.052 19.271C128.445 19.5053 128.907 19.6225 129.439 19.6225Z" fill="#3D455F"/>
<path d="M140.073 21.1805C138.958 21.1805 138.094 20.8987 137.48 20.335C136.872 19.765 136.568 18.8625 136.568 17.6275V10.664L136.91 6.94001H138.553V17.3045C138.553 18.1215 138.718 18.6947 139.047 19.024C139.376 19.347 139.877 19.5085 140.548 19.5085C140.738 19.5085 140.928 19.4958 141.118 19.4705C141.308 19.4452 141.52 19.4072 141.755 19.3565V20.9905C141.495 21.0475 141.219 21.0918 140.928 21.1235C140.643 21.1615 140.358 21.1805 140.073 21.1805ZM134.706 12.2695V10.664H141.631V12.2695H134.706Z" fill="#3D455F"/>
<path d="M147.27 21.19C146.339 21.19 145.529 21 144.838 20.62C144.154 20.24 143.622 19.6573 143.242 18.872C142.862 18.0867 142.672 17.0797 142.672 15.851C142.672 14.616 142.859 13.6058 143.233 12.8205C143.607 12.0352 144.135 11.4525 144.819 11.0725C145.51 10.6925 146.327 10.5025 147.27 10.5025C148.214 10.5025 149.028 10.6925 149.712 11.0725C150.402 11.4525 150.934 12.0352 151.308 12.8205C151.682 13.6058 151.868 14.6128 151.868 15.8415C151.868 17.0638 151.678 18.0708 151.298 18.8625C150.925 19.6542 150.393 20.24 149.702 20.62C149.012 21 148.201 21.19 147.27 21.19ZM147.27 19.6225C147.802 19.6225 148.262 19.5085 148.648 19.2805C149.034 19.0462 149.332 18.6567 149.541 18.112C149.75 17.561 149.854 16.8105 149.854 15.8605C149.854 14.8978 149.75 14.141 149.541 13.59C149.332 13.039 149.034 12.6495 148.648 12.4215C148.262 12.1872 147.802 12.07 147.27 12.07C146.738 12.07 146.279 12.184 145.893 12.412C145.507 12.64 145.209 13.0295 145 13.5805C144.791 14.1252 144.686 14.8725 144.686 15.8225C144.686 16.7852 144.788 17.542 144.99 18.093C145.199 18.644 145.497 19.0367 145.883 19.271C146.276 19.5053 146.738 19.6225 147.27 19.6225Z" fill="#3D455F"/>
</svg>
