<svg xmlns="http://www.w3.org/2000/svg" fill="none" viewBox="0 0 17 17"><rect width="16" height="16" x=".933" y=".215" fill="#000" rx="2.456"/><path fill="#5B55DD" d="M13.942 5.243c-.156-1.146-1.164-2.05-2.358-2.224-.202-.03-.965-.137-2.734-.137h-.013c-1.77 0-2.149.107-2.35.137-1.162.17-2.222.982-2.48 2.141-.123.571-.136 1.204-.113 1.785.033.833.039 1.665.115 2.494.053.551.145 1.098.276 1.636.244.994 1.234 1.82 2.204 2.158a5.962 5.962 0 0 0 3.225.169c.118-.027.235-.059.35-.095.26-.082.564-.173.788-.334a.026.026 0 0 0 .01-.02v-.803a.024.024 0 0 0-.009-.019.024.024 0 0 0-.02-.004 9.014 9.014 0 0 1-2.093.242c-1.213 0-1.54-.57-1.633-.808a2.486 2.486 0 0 1-.141-.637.023.023 0 0 1 .029-.024 8.842 8.842 0 0 0 2.059.243c.166 0 .333 0 .5-.005.697-.019 1.432-.054 2.118-.187l.05-.01c1.082-.207 2.112-.854 2.217-2.491.004-.065.013-.676.013-.743 0-.227.074-1.613-.01-2.464ZM12.276 9.33h-1.139V6.566c0-.582-.244-.878-.742-.878-.546 0-.82.35-.82 1.044v1.513H8.443V6.732c0-.693-.274-1.044-.821-1.044-.495 0-.742.296-.742.878V9.33H5.743V6.482c0-.582.15-1.044.45-1.386.308-.342.714-.518 1.217-.518.583 0 1.023.222 1.316.666l.284.471.283-.47c.294-.445.734-.667 1.316-.667.502 0 .908.176 1.218.518.3.342.45.804.45 1.386l-.001 2.848Z"/></svg>