<svg width="288" height="44" viewBox="0 0 288 44" fill="none" xmlns="http://www.w3.org/2000/svg">
<rect width="288" height="44" rx="6" fill="#BF3F3B"/>
<path d="M97.5508 29.6799C98.4991 30.2437 100.396 30.7563 102.241 30.7563C106.675 30.7563 108.776 28.3728 108.776 25.5792C108.776 23.1189 107.341 21.6068 104.342 20.4535C102.036 19.5821 101.036 18.967 101.036 17.6343C101.036 16.6091 101.882 15.5583 103.881 15.5583C105.496 15.5583 106.7 16.0453 107.341 16.3785L108.084 13.8156C107.187 13.3799 105.829 12.9698 103.958 12.9698C100.191 12.9698 97.8327 15.097 97.8327 17.9418C97.8327 20.4022 99.6524 21.9399 102.523 22.9395C104.701 23.734 105.573 24.5028 105.573 25.8099C105.573 27.2195 104.445 28.1678 102.446 28.1678C100.831 28.1678 99.2679 27.6552 98.2684 27.0657L97.5508 29.6799ZM117.316 30.7819C120.469 30.7819 123.698 28.7316 123.698 24.144C123.698 20.351 121.212 17.7368 117.496 17.7368C113.728 17.7368 111.037 20.2484 111.037 24.3491C111.037 28.3728 113.779 30.7819 117.291 30.7819H117.316ZM117.368 28.5009C115.497 28.5009 114.292 26.6813 114.292 24.2722C114.292 22.1962 115.189 20.0178 117.419 20.0178C119.572 20.0178 120.443 22.2731 120.443 24.2209C120.443 26.7582 119.187 28.5009 117.393 28.5009H117.368ZM126.498 30.5H129.65V12.2778H126.498V30.5ZM141.635 12.2778V19.3514H141.584C141.02 18.4288 139.79 17.7368 138.073 17.7368C135.074 17.7368 132.46 20.2228 132.486 24.4003C132.486 28.2447 134.844 30.7819 137.842 30.7819C139.636 30.7819 141.148 29.9105 141.892 28.5266H141.943L142.097 30.5H144.89C144.839 29.6542 144.788 28.2703 144.788 26.9888V12.2778H141.635ZM141.635 25.0923C141.635 25.4255 141.61 25.733 141.533 26.0149C141.225 27.3733 140.098 28.2447 138.816 28.2447C136.817 28.2447 135.69 26.5788 135.69 24.2722C135.69 21.9656 136.817 20.1716 138.842 20.1716C140.277 20.1716 141.277 21.1711 141.559 22.3756C141.61 22.6319 141.635 22.9651 141.635 23.2214V25.0923ZM159.363 30.7819C162.515 30.7819 165.744 28.7316 165.744 24.144C165.744 20.351 163.258 17.7368 159.542 17.7368C155.775 17.7368 153.084 20.2484 153.084 24.3491C153.084 28.3728 155.826 30.7819 159.337 30.7819H159.363ZM159.414 28.5009C157.543 28.5009 156.339 26.6813 156.339 24.2722C156.339 22.1962 157.236 20.0178 159.465 20.0178C161.618 20.0178 162.49 22.2731 162.49 24.2209C162.49 26.7582 161.234 28.5009 159.44 28.5009H159.414ZM179.719 18.0187H176.566V25.5536C176.566 25.9124 176.515 26.2712 176.387 26.5275C176.079 27.3476 175.259 28.219 173.978 28.219C172.312 28.219 171.646 26.8863 171.646 24.8104V18.0187H168.493V25.3486C168.493 29.4236 170.569 30.7819 172.825 30.7819C175.08 30.7819 176.31 29.5005 176.848 28.6291H176.925L177.079 30.5H179.821C179.77 29.4748 179.719 28.2447 179.719 26.7582V18.0187ZM183.849 15.6865V18.0187H182.08V20.3766H183.849V26.22C183.849 27.8602 184.156 29.0135 184.848 29.7311C185.438 30.3719 186.386 30.7563 187.565 30.7563C188.539 30.7563 189.384 30.6025 189.846 30.4231L189.794 28.0396C189.436 28.1421 189.128 28.1678 188.564 28.1678C187.36 28.1678 186.95 27.3989 186.95 25.8612V20.3766H189.948V18.0187H186.95V14.8151L183.849 15.6865Z" fill="white"/>
</svg>
